<?xml version="1.0" encoding="utf-8"?>
<svg width="48px" height="48px" viewBox="0 0 48 48" version="1.1" xmlns:xlink="http://www.w3.org/1999/xlink" xmlns="http://www.w3.org/2000/svg">
  <path d="M24 0L16.8 7.20001L7.20001 7.20001L7.20001 16.8L0 24L7.20001 31.2L7.20001 40.8L16.8 40.8L24 48L31.2 40.8L40.8 40.8L40.8 31.2L48 24L40.8 16.8L40.8 7.20001L31.2 7.20001L24 0L24 0ZM24 12C30.6264 12 36 17.3736 36 24C36 30.6264 30.6264 36 24 36C17.3736 36 12 30.6264 12 24C12 17.3736 17.3736 12 24 12L24 12Z" id="Shape" fill="#5E5E5E" fill-rule="evenodd" stroke="none" />
</svg>