<?xml version="1.0" encoding="utf-8"?>
<svg width="300" height="200" viewBox="0 0 300 200" fill="none" xmlns="http://www.w3.org/2000/svg">
  <defs>
    <linearGradient id="gradient_1" gradientUnits="userSpaceOnUse" x1="-10.986" y1="1.732" x2="46.354" y2="34.763">
      <stop offset="0" stop-color="#AA5CC3" />
      <stop offset="1" stop-color="#00A4DC" />
    </linearGradient>
    <linearGradient id="gradient_2" gradientUnits="userSpaceOnUse" x1="12.12" y1="28.17" x2="69.46" y2="61.201">
      <stop offset="0" stop-color="#AA5CC3" />
      <stop offset="1" stop-color="#00A4DC" />
    </linearGradient>
  </defs>
  <g>
    <rect width="300" height="200" fill="#000B25" fill-rule="evenodd" />
    <path d="M11.466 47.268Q8.7048 47.268 6.4116 46.0044Q4.1184 44.7408 2.7144 42.4944Q2.2932 41.7924 2.2932 41.184Q2.2932 40.2012 3.042 39.546Q3.7908 38.8908 4.5396 38.8908Q5.1948 38.8908 5.733 39.2418Q6.2712 39.5928 6.7392 40.1076Q7.6752 41.3244 8.8452 41.9562Q10.0152 42.588 11.466 42.588Q13.1508 42.588 14.508 41.8158Q15.8652 41.0436 16.6608 39.7098Q17.4564 38.376 17.4564 36.7848L17.4564 16.4268Q17.4564 15.3972 18.2052 14.7186Q18.954 14.04 19.9368 14.04Q21.0132 14.04 21.6684 14.7186Q22.3236 15.3972 22.3236 16.4268L22.3236 36.7848Q22.3236 39.6396 20.8962 42.0264Q19.4688 44.4132 17.0118 45.8406Q14.5548 47.268 11.466 47.268ZM40.9032 47.268Q37.0188 47.268 34.164 45.6534Q31.3092 44.0388 29.7414 41.2074Q28.1736 38.376 28.1736 34.7256Q28.1736 30.6072 29.835 27.6822Q31.4964 24.7572 34.164 23.1894Q36.8316 21.6216 39.8268 21.6216Q42.12 21.6216 44.1792 22.5342Q46.2384 23.4468 47.853 25.0614Q49.4676 26.676 50.4036 28.8522Q51.3396 31.0284 51.3864 33.6024Q51.3396 34.5384 50.6376 35.1468Q49.9356 35.7552 48.9996 35.7552L30.7944 35.7552L29.6712 31.7772L47.268 31.7772L46.3788 32.6196L46.3788 31.4496Q46.2852 29.8116 45.3024 28.5714Q44.3196 27.3312 42.8688 26.6526Q41.418 25.974 39.8268 25.974Q38.4228 25.974 37.1358 26.4186Q35.8488 26.8632 34.8426 27.846Q33.8364 28.8288 33.2514 30.4434Q32.6664 32.058 32.6664 34.4448Q32.6664 37.0188 33.7428 38.9376Q34.8192 40.8564 36.6444 41.9094Q38.4696 42.9624 40.6692 42.9624Q42.4008 42.9624 43.524 42.6114Q44.6472 42.2604 45.396 41.7456Q46.1448 41.2308 46.7064 40.7628Q47.4084 40.3416 48.1104 40.3416Q48.9528 40.3416 49.5144 40.9266Q50.076 41.5116 50.076 42.3072Q50.076 43.3368 49.0464 44.1792Q47.7828 45.396 45.5598 46.332Q43.3368 47.268 40.9032 47.268ZM61.7292 44.4132Q61.7292 45.4428 61.0506 46.1214C60.5982 46.5738 60.0444 46.8 59.3892 46.8C58.734 46.8 58.1802 46.5738 57.7278 46.1214Q57.0492 45.4428 57.0492 44.4132L57.0492 14.5548Q57.0492 13.5252 57.7512 12.8466Q58.4532 12.168 59.436 12.168Q60.4656 12.168 61.0974 12.8466Q61.7292 13.5252 61.7292 14.5548L61.7292 44.4132ZM73.7568 44.4132Q73.7568 45.4428 73.0782 46.1214C72.6258 46.5738 72.072 46.8 71.4168 46.8C70.7616 46.8 70.2078 46.5738 69.7554 46.1214Q69.0768 45.4428 69.0768 44.4132L69.0768 14.5548Q69.0768 13.5252 69.7788 12.8466Q70.4808 12.168 71.4636 12.168Q72.4932 12.168 73.125 12.8466Q73.7568 13.5252 73.7568 14.5548L73.7568 44.4132ZM98.3268 21.996Q99.3564 21.996 100.012 22.6746Q100.667 23.3532 100.667 24.3828L100.667 44.5068Q100.667 48.6252 99.099 51.1992Q97.5312 53.7732 94.887 54.9666Q92.2428 56.16 88.92 56.16Q87.2352 56.16 85.5504 55.8558Q83.8656 55.5516 82.7892 54.99Q81.666 54.4752 81.198 53.7264Q80.73 52.9776 81.0576 52.0884Q81.3852 50.9652 82.1808 50.5674Q82.9764 50.1696 83.8188 50.4972Q84.6144 50.8248 85.9248 51.3396Q87.2352 51.8544 88.92 51.8544Q91.2132 51.8544 92.8044 51.1056Q94.3956 50.3568 95.2146 48.7656Q96.0336 47.1744 96.0336 44.6472L96.0336 41.418L96.7824 42.5412Q96.0336 44.0856 94.8168 45.1152Q93.6 46.1448 91.9386 46.7064Q90.2772 47.268 88.2648 47.268Q85.6908 47.268 83.8422 46.1214Q81.9936 44.9748 81.0108 42.939Q80.028 40.9032 80.028 38.2824L80.028 24.3828Q80.028 23.3532 80.6832 22.6746Q81.3384 21.996 82.368 21.996Q83.3508 21.996 84.0294 22.6746Q84.708 23.3532 84.708 24.3828L84.708 37.0188Q84.708 40.1076 86.0652 41.535Q87.4224 42.9624 90.09 42.9624Q91.8684 42.9624 93.1788 42.2136Q94.4892 41.4648 95.238 40.131Q95.9868 38.7972 95.9868 37.0188L95.9868 24.3828Q95.9868 23.3532 96.6654 22.6746Q97.344 21.996 98.3268 21.996ZM118.685 12.2148Q119.574 12.2148 120.51 12.4488Q121.446 12.6828 122.078 13.221Q122.71 13.7592 122.71 14.6952Q122.71 15.6312 122.148 16.2162Q121.586 16.8012 120.838 16.8012Q120.37 16.8012 119.574 16.5906Q118.778 16.38 117.983 16.38Q116.906 16.38 116.251 16.8714Q115.596 17.3628 115.315 18.0882Q115.034 18.8136 115.034 19.5156L115.034 44.4132Q115.034 45.4428 114.356 46.1214C113.903 46.5738 113.35 46.8 112.694 46.8C112.008 46.8 111.446 46.5738 111.01 46.1214Q110.354 45.4428 110.354 44.4132L110.354 19.5624Q110.354 16.3332 112.484 14.274Q114.613 12.2148 118.685 12.2148ZM119.621 22.6044Q120.557 22.6044 121.165 23.2128Q121.774 23.8212 121.774 24.7572Q121.774 25.6932 121.165 26.3016Q120.557 26.91 119.621 26.91L107.5 26.91Q106.61 26.91 105.979 26.3016Q105.347 25.6932 105.347 24.7572Q105.347 23.8212 105.979 23.2128Q106.61 22.6044 107.5 22.6044L119.621 22.6044ZM130.853 44.4132Q130.853 45.4428 130.198 46.1214C129.761 46.5738 129.199 46.8 128.513 46.8C127.858 46.8 127.304 46.5738 126.851 46.1214Q126.173 45.4428 126.173 44.4132L126.173 24.3828Q126.173 23.3532 126.851 22.6746Q127.53 21.996 128.513 21.996Q129.542 21.996 130.198 22.6746Q130.853 23.3532 130.853 24.3828L130.853 44.4132ZM128.466 18.9072Q127.109 18.9072 126.5 18.4158Q125.892 17.9244 125.892 16.7544L125.892 16.0056Q125.892 14.8356 126.547 14.3676Q127.202 13.8996 128.513 13.8996Q129.917 13.8996 130.525 14.391Q131.134 14.8824 131.134 16.0056L131.134 16.7544Q131.134 17.9712 130.502 18.4392Q129.87 18.9072 128.466 18.9072ZM149.854 21.6216Q153.176 21.6216 155.002 23.0022Q156.827 24.3828 157.552 26.6994Q158.278 29.016 158.278 31.8708L158.278 44.4132Q158.278 45.4428 157.599 46.1214C157.147 46.5738 156.593 46.8 155.938 46.8C155.251 46.8 154.69 46.5738 154.253 46.1214Q153.598 45.4428 153.598 44.4132L153.598 31.9176Q153.598 30.2328 153.13 28.899Q152.662 27.5652 151.515 26.7462Q150.368 25.9272 148.309 25.9272Q146.39 25.9272 144.94 26.7462Q143.489 27.5652 142.67 28.899Q141.851 30.2328 141.851 31.9176L141.851 44.4132Q141.851 45.4428 141.172 46.1214C140.72 46.5738 140.166 46.8 139.511 46.8C138.824 46.8 138.263 46.5738 137.826 46.1214Q137.171 45.4428 137.171 44.4132L137.171 24.57Q137.171 23.5404 137.826 22.8618Q138.481 22.1832 139.511 22.1832Q140.494 22.1832 141.172 22.8618Q141.851 23.5404 141.851 24.57L141.851 27.1908L141.008 27.6588Q141.336 26.6292 142.155 25.5762Q142.974 24.5232 144.144 23.6106Q145.314 22.698 146.765 22.1598Q148.216 21.6216 149.854 21.6216Z" fill="#FFFFFF" transform="translate(107 74)" />
    <g transform="translate(32 66)">
      <path d="M11.4765 0C8.43928 0 -1.33805 17.6862 0.153809 20.6721C1.64567 23.6581 21.3251 23.6255 22.7992 20.6721C24.2732 17.7188 14.5137 0.00148392 11.4765 0Z" fill="url(#gradient_1)" transform="translate(23.106 26.438)" />
      <path d="M34.5824 0C25.4307 0 -4.0291 53.2897 0.462826 62.2892C4.95475 71.2887 64.2591 71.185 68.702 62.2892C73.1449 53.3935 43.7327 0 34.5824 0ZM56.9425 54.4803C54.0316 60.3114 15.1764 60.3767 12.2313 54.4803C9.28618 48.5839 28.5912 13.6668 34.5869 13.6668C40.5825 13.6668 59.8534 48.6477 56.9425 54.4803Z" fill="url(#gradient_2)" />
    </g>
  </g>
</svg>