<?xml version="1.0" encoding="utf-8"?>
<svg width="300" height="200" viewBox="0 0 300 200" fill="none" xmlns="http://www.w3.org/2000/svg">
  <defs>
    <filter color-interpolation-filters="sRGB" x="-172" y="-57" width="174" height="59" id="filter_1">
      <feFlood flood-opacity="0" result="BackgroundImageFix_1" />
      <feColorMatrix type="matrix" values="0 0 0 0 0 0 0 0 0 0 0 0 0 0 0 0 0 0 1 0" in="SourceAlpha" />
      <feOffset dx="0" dy="0" />
      <feGaussianBlur stdDeviation="2" />
      <feColorMatrix type="matrix" values="0 0 0 0 0 0 0 0 0 0 0 0 0 0 0 0 0 0 0.251 0" />
      <feBlend mode="normal" in2="BackgroundImageFix_1" result="Shadow_2" />
      <feBlend mode="normal" in="SourceGraphic" in2="Shadow_2" result="Shape_3" />
    </filter>
    <linearGradient id="gradient_2" gradientUnits="userSpaceOnUse" x1="54.12" y1="18.133" x2="17.714" y2="53.701">
      <stop offset="0" stop-color="#785BF5" />
      <stop offset="1" stop-color="#2856E0" />
    </linearGradient>
  </defs>
  <g>
    <rect width="300" height="200" fill="#000B25" fill-rule="evenodd" />
    <g filter="url(#filter_1)" transform="translate(102 71)">
      <path d="M13.8528 47.268Q10.4832 47.268 7.8624 46.332Q5.2416 45.396 2.8548 43.2432Q2.34 42.8688 2.0826 42.3306Q1.8252 41.7924 1.8252 41.2308Q1.8252 40.3416 2.4804 39.6396Q3.1356 38.9376 4.1184 38.9376Q4.8672 38.9376 5.5224 39.4524Q7.3008 41.0904 9.243 41.9328Q11.1852 42.7752 13.806 42.7752Q15.678 42.7752 17.2458 42.1668Q18.8136 41.5584 19.7496 40.5288Q20.6856 39.4992 20.6856 38.142Q20.6856 36.4572 19.7262 35.3574Q18.7668 34.2576 16.965 33.5322Q15.1632 32.8068 12.636 32.292Q10.296 31.8708 8.4474 31.122Q6.5988 30.3732 5.2884 29.2266Q3.978 28.08 3.276 26.4888Q2.574 24.8976 2.574 22.7916Q2.574 19.9368 4.0716 17.8776Q5.5692 15.8184 8.1432 14.6952Q10.7172 13.572 13.9464 13.572Q16.8948 13.572 19.4688 14.4846Q22.0428 15.3972 23.634 16.9416Q24.7572 17.9244 24.7572 19.0476Q24.7572 19.89 24.0786 20.6154Q23.4 21.3408 22.5108 21.3408Q21.8556 21.3408 21.3876 20.9664Q20.6388 20.1708 19.3752 19.539Q18.1116 18.9072 16.6842 18.486Q15.2568 18.0648 13.9464 18.0648Q11.8404 18.0648 10.3428 18.6498Q8.8452 19.2348 8.0496 20.241Q7.254 21.2472 7.254 22.6044Q7.254 24.1956 8.1666 25.2252Q9.0792 26.2548 10.7172 26.8866Q12.3552 27.5184 14.4612 28.0332Q17.0352 28.5948 19.071 29.2968Q21.1068 29.9988 22.5108 31.0986Q23.9148 32.1984 24.6636 33.8364Q25.4124 35.4744 25.4124 37.908Q25.4124 40.716 23.8212 42.822Q22.23 44.928 19.6326 46.098Q17.0352 47.268 13.8528 47.268ZM30.3264 22.464L41.3244 22.464Q42.2604 22.464 42.8922 23.0958Q43.524 23.7276 43.524 24.6636Q43.524 25.5528 42.8922 26.1612Q42.2604 26.7696 41.3244 26.7696L30.3264 26.7696Q29.3904 26.7696 28.7586 26.1378Q28.1268 25.506 28.1268 24.6168Q28.1268 23.6808 28.7586 23.0724Q29.3904 22.464 30.3264 22.464ZM35.2404 16.38Q36.27 16.38 36.9252 17.0586Q37.5804 17.7372 37.5804 18.7668L37.5804 40.482Q37.5804 41.3244 37.8612 41.8392Q38.142 42.354 38.6334 42.5412Q39.1248 42.7284 39.6396 42.7284Q40.1544 42.7284 40.5522 42.5412Q40.95 42.354 41.5116 42.354Q42.0732 42.354 42.5412 42.8688Q43.0092 43.3836 43.0092 44.2728Q43.0092 45.396 41.7924 46.098C40.9812 46.566 40.1076 46.8 39.1716 46.8C38.6412 46.8 38.0172 46.7532 37.2996 46.6596Q36.2232 46.5192 35.217 45.9576Q34.2108 45.396 33.5556 44.1558Q32.9004 42.9156 32.9004 40.6692L32.9004 18.7668Q32.9004 17.7372 33.579 17.0586Q34.2576 16.38 35.2404 16.38ZM51.0588 46.8C50.3724 46.8 49.8108 46.5738 49.374 46.1214Q48.7188 45.4428 48.7188 44.4132L48.7188 24.57Q48.7188 23.5404 49.374 22.8618Q50.0292 22.1832 51.0588 22.1832Q52.0416 22.1832 52.7202 22.8618Q53.3988 23.5404 53.3988 24.57L53.3988 29.8116L52.9308 27.7992Q53.3052 26.4888 54.0774 25.3656Q54.8496 24.2424 55.926 23.4Q57.0024 22.5576 58.3362 22.0896Q59.67 21.6216 61.1208 21.6216Q62.3376 21.6216 63.2268 22.2768Q64.116 22.932 64.116 23.9148Q64.116 25.1784 63.4608 25.7634Q62.8056 26.3484 62.01 26.3484Q61.308 26.3484 60.6528 26.0442Q59.9976 25.74 59.1084 25.74Q58.1256 25.74 57.096 26.2548Q56.0664 26.7696 55.224 27.7758Q54.3816 28.782 53.8902 30.1392Q53.3988 31.4964 53.3988 33.1812L53.3988 44.4132Q53.3988 45.4428 52.7202 46.1214C52.2678 46.5738 51.714 46.8 51.0588 46.8ZM78.7176 47.268Q74.8332 47.268 71.9784 45.6534Q69.1236 44.0388 67.5558 41.2074Q65.988 38.376 65.988 34.7256Q65.988 30.6072 67.6494 27.6822Q69.3108 24.7572 71.9784 23.1894Q74.646 21.6216 77.6412 21.6216Q79.9344 21.6216 81.9936 22.5342Q84.0528 23.4468 85.6674 25.0614Q87.282 26.676 88.218 28.8522Q89.154 31.0284 89.2008 33.6024Q89.154 34.5384 88.452 35.1468Q87.75 35.7552 86.814 35.7552L68.6088 35.7552L67.4856 31.7772L85.0824 31.7772L84.1932 32.6196L84.1932 31.4496Q84.0996 29.8116 83.1168 28.5714Q82.134 27.3312 80.6832 26.6526Q79.2324 25.974 77.6412 25.974Q76.2372 25.974 74.9502 26.4186Q73.6632 26.8632 72.657 27.846Q71.6508 28.8288 71.0658 30.4434Q70.4808 32.058 70.4808 34.4448Q70.4808 37.0188 71.5572 38.9376Q72.6336 40.8564 74.4588 41.9094Q76.284 42.9624 78.4836 42.9624Q80.2152 42.9624 81.3384 42.6114Q82.4616 42.2604 83.2104 41.7456Q83.9592 41.2308 84.5208 40.7628Q85.2228 40.3416 85.9248 40.3416Q86.7672 40.3416 87.3288 40.9266Q87.8904 41.5116 87.8904 42.3072Q87.8904 43.3368 86.8608 44.1792Q85.5972 45.396 83.3742 46.332Q81.1512 47.268 78.7176 47.268ZM106.844 21.762Q110.308 21.762 112.18 23.4702Q114.052 25.1784 114.66 28.08L113.911 27.846L114.239 27.0972Q114.847 25.8804 116.087 24.6402Q117.328 23.4 119.059 22.581Q120.791 21.762 122.756 21.762Q125.986 21.762 127.764 23.1426Q129.542 24.5232 130.244 26.8398Q130.946 29.1564 130.946 32.0112L130.946 44.4132Q130.946 45.4428 130.291 46.1214C129.854 46.5738 129.293 46.8 128.606 46.8C127.951 46.8 127.397 46.5738 126.945 46.1214Q126.266 45.4428 126.266 44.4132L126.266 32.058Q126.266 30.42 125.822 29.0628Q125.377 27.7056 124.277 26.8866Q123.178 26.0676 121.259 26.0676Q119.434 26.0676 118.006 26.8866Q116.579 27.7056 115.783 29.0628Q114.988 30.42 114.988 32.058L114.988 44.4132Q114.988 45.4428 114.332 46.1214C113.896 46.5738 113.334 46.8 112.648 46.8C111.961 46.8 111.4 46.5738 110.963 46.1214Q110.308 45.4428 110.308 44.4132L110.308 32.0112Q110.308 30.3732 109.863 29.016Q109.418 27.6588 108.342 26.8632Q107.266 26.0676 105.347 26.0676Q103.522 26.0676 102.118 26.8632Q100.714 27.6588 99.9414 29.016Q99.1692 30.3732 99.1692 32.0112L99.1692 44.4132Q99.1692 45.4428 98.4906 46.1214C98.0382 46.5738 97.4844 46.8 96.8292 46.8C96.1428 46.8 95.5812 46.5738 95.1444 46.1214Q94.4892 45.4428 94.4892 44.4132L94.4892 24.57Q94.4892 23.5404 95.1444 22.8618Q95.7996 22.1832 96.8292 22.1832Q97.812 22.1832 98.4906 22.8618Q99.1692 23.5404 99.1692 24.57L99.1692 27.3312L98.28 27.846Q98.6076 26.8164 99.3564 25.74Q100.105 24.6636 101.252 23.7744Q102.398 22.8852 103.802 22.3236Q105.206 21.762 106.844 21.762ZM141.898 44.4132Q141.898 45.4428 141.242 46.1214C140.806 46.5738 140.244 46.8 139.558 46.8C138.902 46.8 138.349 46.5738 137.896 46.1214Q137.218 45.4428 137.218 44.4132L137.218 24.3828Q137.218 23.3532 137.896 22.6746Q138.575 21.996 139.558 21.996Q140.587 21.996 141.242 22.6746Q141.898 23.3532 141.898 24.3828L141.898 44.4132ZM139.511 18.9072Q138.154 18.9072 137.545 18.4158Q136.937 17.9244 136.937 16.7544L136.937 16.0056Q136.937 14.8356 137.592 14.3676Q138.247 13.8996 139.558 13.8996Q140.962 13.8996 141.57 14.391Q142.178 14.8824 142.178 16.0056L142.178 16.7544Q142.178 17.9712 141.547 18.4392Q140.915 18.9072 139.511 18.9072ZM171.803 34.4916Q171.803 38.2356 170.165 41.1138Q168.527 43.992 165.719 45.63Q162.911 47.268 159.401 47.268Q155.891 47.268 153.083 45.63Q150.275 43.992 148.613 41.1138Q146.952 38.2356 146.952 34.4916Q146.952 30.7008 148.613 27.8226Q150.275 24.9444 153.083 23.283Q155.891 21.6216 159.401 21.6216Q162.911 21.6216 165.719 23.283Q168.527 24.9444 170.165 27.8226Q171.803 30.7008 171.803 34.4916ZM167.123 34.4916Q167.123 31.9176 166.093 30.0222Q165.064 28.1268 163.309 27.027Q161.554 25.9272 159.401 25.9272Q157.248 25.9272 155.47 27.027Q153.691 28.1268 152.662 30.0222Q151.632 31.9176 151.632 34.4916Q151.632 36.972 152.662 38.8908Q153.691 40.8096 155.47 41.886Q157.248 42.9624 159.401 42.9624Q161.554 42.9624 163.309 41.886Q165.064 40.8096 166.093 38.8908Q167.123 36.972 167.123 34.4916Z" fill="#FFFFFF" />
    </g>
    <g transform="translate(25 64)">
      <path d="M70.4389 32.2316C72.5204 34.3131 72.5204 37.6869 70.4389 39.7684C70.4389 39.7684 39.7684 70.4389 39.7684 70.4389C37.6869 72.5204 34.3131 72.5204 32.2316 70.4389C32.2316 70.4389 1.56113 39.7684 1.56113 39.7684C-0.520376 37.6869 -0.520379 34.3131 1.56113 32.2316C1.56113 32.2316 32.2316 1.56113 32.2316 1.56113C34.3131 -0.520381 37.6869 -0.520372 39.7684 1.56113C39.7684 1.56113 70.4389 32.2316 70.4389 32.2316Z" fill="url(#gradient_2)" />
      <path d="M0.685467 0.215689C0.474133 0.360058 0.307255 0.557602 0.18482 0.808319C0.0623837 1.05903 0.00078392 1.32937 7.62939e-06 1.61934C7.62939e-06 1.61934 0 1.62456 0 1.62456L7.62939e-06 23.5455C7.62939e-06 23.5455 7.62939e-06 23.5506 7.62939e-06 23.5506C0.00078392 23.8405 0.0623894 24.1109 0.184828 24.3616C0.307261 24.6124 0.47414 24.8099 0.685474 24.9542C0.897478 25.099 1.1257 25.171 1.37016 25.17C1.61462 25.1689 1.84241 25.095 2.05354 24.9483C2.05354 24.9483 17.8304 13.9879 17.8304 13.9879C18.04 13.8423 18.2053 13.6443 18.3261 13.3939C18.4469 13.1434 18.5073 12.8738 18.5073 12.585C18.5073 12.2962 18.4469 12.0266 18.3261 11.7761C18.2053 11.5256 18.04 11.3276 17.8304 11.182C17.8304 11.182 2.05354 0.221592 2.05354 0.221592C1.84241 0.0749283 1.61462 0.0010643 1.37017 1.14441e-05C1.12571 -0.00104332 0.897472 0.0708485 0.685467 0.215689C0.685467 0.215689 0.685467 0.215689 0.685467 0.215689Z" fill="#FFFFFF" fill-rule="evenodd" transform="translate(30.24 23.421)" />
    </g>
  </g>
</svg>